<svg version="1.1" xmlns="http://www.w3.org/2000/svg" xmlns:xlink="http://www.w3.org/1999/xlink" width="199.81569" height="55.92799" viewBox="0,0,199.81569,55.92799"><g transform="translate(-182.35812,-134.68143)"><g data-paper-data="{&quot;isPaintingLayer&quot;:true}" fill-rule="nonzero" stroke-linejoin="miter" stroke-miterlimit="10" stroke-dasharray="" stroke-dashoffset="0" style="mix-blend-mode: normal"><path d="M283.03728,160.5002c0.06622,0.11773 0.12047,0.2531 0.16476,0.4013c0.0933,0.25852 0.14518,0.53684 0.14765,0.82695c0.08658,0.92947 -0.00878,1.98996 0.00009,2.49064c0.01074,0.60526 1.06074,-0.58399 1.59913,-0.86074c1.19846,-0.61605 2.74312,-1.26587 4.13849,-1.27075c7.0172,-0.02453 14.03447,-0.00469 21.05171,0c7.5299,0.00503 14.83567,1.41216 22.45169,1.37293c5.80811,-0.02991 10.96997,-1.78298 16.42601,-2.95114c1.53336,-0.3283 3.52903,0.2878 3.52903,2.43067c0,2.39608 -2.62328,2.57444 -4.17609,3.05632c-4.79197,1.48709 -10.36214,2.42848 -15.5314,2.46415c-2.83733,0.01958 -5.67483,0.01091 -8.51221,0c-1.75608,-0.00675 -3.75225,-0.36994 -5.54572,-0.56043c-2.89954,-0.30797 -5.75814,-0.80095 -8.69809,-0.8125c-6.89567,-0.02709 -13.79145,-0.00561 -20.68716,0c-2.83321,0.00231 -4.74135,2.96992 -7.44704,3.29505c-4.45425,0.53524 -3.60237,-2.96592 -3.59835,-5.72734c0.00203,-1.39607 -0.86667,-3.48131 0.34546,-4.17396c0.43488,-0.73685 1.23699,-1.23117 2.15454,-1.23117c0.81357,0 1.53638,0.38862 1.99291,0.99036c0.07451,0.07697 0.14011,0.16278 0.19459,0.25964z" fill="#000000" stroke="none" stroke-width="0.5" stroke-linecap="butt"/><path d="M254.94677,175.63248h-62.35143" fill="none" stroke="#000000" stroke-width="11" stroke-linecap="round"/><path d="M192.73031,152.77326h62.35142" fill="none" stroke="#000000" stroke-width="11" stroke-linecap="round"/><path d="M333.05388,152.77326h-50.79617" fill="none" stroke="#000000" stroke-width="11" stroke-linecap="round"/><path d="M279.65975,175.63248h50.79617" fill="none" stroke="#000000" stroke-width="11" stroke-linecap="round"/><text transform="translate(185.84119,177.57282) scale(0.99516,0.99516)" font-size="40" xml:space="preserve" fill="#ffffff" fill-rule="nonzero" stroke="#000000" stroke-width="7" stroke-linecap="butt" stroke-linejoin="miter" stroke-miterlimit="10" stroke-dasharray="" stroke-dashoffset="0" font-family="&quot;Title Card-Numbers&quot;, Sans Serif" font-weight="normal" text-anchor="start" style="mix-blend-mode: normal"><tspan x="0" dy="0">Final Castle 1</tspan></text><text transform="translate(185.84119,177.57282) scale(0.99516,0.99516)" font-size="40" xml:space="preserve" fill="#ffffff" fill-rule="nonzero" stroke="none" stroke-width="1" stroke-linecap="butt" stroke-linejoin="miter" stroke-miterlimit="10" stroke-dasharray="" stroke-dashoffset="0" font-family="&quot;Title Card-Numbers&quot;, Sans Serif" font-weight="normal" text-anchor="start" style="mix-blend-mode: normal"><tspan x="0" dy="0">Final Castle 1</tspan></text><path d="M197.93541,173.81246c0,-1.38071 1.11929,-2.5 2.5,-2.5c1.38071,0 2.5,1.11929 2.5,2.5c0,1.38071 -1.11929,2.5 -2.5,2.5c-1.38071,0 -2.5,-1.11929 -2.5,-2.5z" fill="#000000" stroke="none" stroke-width="0.5" stroke-linecap="butt"/></g></g></svg>